#N canvas 642 248 670 289 10;
#X obj 192 63 osc~ 440;
#X floatatom 194 187 10 0 0 0 - - -;
#X obj 193 94 *~ 0.3;
#X obj 193 137 xtract~ f0;
#X connect 0 0 2 0;
#X connect 2 0 3 0;
#X connect 3 0 1 0;
