#N canvas 415 243 512 595 10;
#X obj 141 161 samplerate~;
#X obj 141 401 phasor~;
#X obj 23 10 inlet~;
#X obj 140 523 outlet~;
#X obj 141 78 loadbang;
#X text 232 72 Clone of zexy blockswap~;
#X text 232 90 First argument gives block size;
#X obj 245 167 f \$1;
#X obj 245 343 /;
#X obj 141 109 t b b;
#X obj 284 264 / 2;
#X obj 245 265 t b a;
#X obj 245 304 f;
#X obj 245 213 - 1;
#X obj 141 332 / \$1;
#X obj 140 473 *~ \$1;
#X obj 385 4 table \$0-input;
#X obj 23 34 tabsend~ \$0-input;
#X msg 321 315 \; \$1-input resize \$2;
#X obj 321 265 pack \$0 \$1;
#X obj 245 189 t a a b;
#X obj 141 496 tabread~ \$0-input;
#X connect 0 0 14 0;
#X connect 1 0 15 0;
#X connect 2 0 17 0;
#X connect 4 0 9 0;
#X connect 7 0 20 0;
#X connect 8 0 1 1;
#X connect 9 0 0 0;
#X connect 9 1 7 0;
#X connect 10 0 12 1;
#X connect 11 0 12 0;
#X connect 11 1 8 1;
#X connect 12 0 8 0;
#X connect 13 0 11 0;
#X connect 14 0 1 0;
#X connect 15 0 21 0;
#X connect 19 0 18 0;
#X connect 20 0 13 0;
#X connect 20 1 10 0;
#X connect 20 2 19 0;
#X connect 21 0 3 0;
