#N canvas 165 175 599 406 10;
#X obj 151 123 inlet;
#X obj 151 179 % 12;
#X obj 151 232 sel 0 1 2 3 4 5 6 7 8 9 10 11;
#X obj 483 268 / 12;
#X obj 483 291 int;
#X obj 483 313 outlet;
#X msg 80 272 C;
#X msg 110 272 C#;
#X msg 142 273 D;
#X msg 174 273 D#;
#X msg 203 273 E;
#X msg 236 274 F;
#X msg 269 274 F#;
#X msg 299 274 G;
#X msg 329 274 G#;
#X msg 359 275 A;
#X msg 393 275 A#;
#X msg 425 275 B;
#X obj 235 342 symbol;
#X obj 235 368 outlet;
#X obj 569 206 int;
#X obj 537 184 t f f;
#X obj 537 207 -;
#X obj 538 313 outlet;
#X text 51 30 a_mton takes midi note number as a float and outputs
note name \, octave and deviation in cents.;
#X obj 537 231 * 100;
#X obj 537 250 - 50;
#X connect 0 0 1 0;
#X connect 0 0 3 0;
#X connect 0 0 21 0;
#X connect 1 0 2 0;
#X connect 2 0 6 0;
#X connect 2 1 7 0;
#X connect 2 2 8 0;
#X connect 2 3 9 0;
#X connect 2 4 10 0;
#X connect 2 5 11 0;
#X connect 2 6 12 0;
#X connect 2 7 13 0;
#X connect 2 8 14 0;
#X connect 2 9 15 0;
#X connect 2 10 16 0;
#X connect 2 11 17 0;
#X connect 3 0 4 0;
#X connect 4 0 5 0;
#X connect 6 0 18 0;
#X connect 7 0 18 0;
#X connect 8 0 18 0;
#X connect 9 0 18 0;
#X connect 10 0 18 0;
#X connect 11 0 18 0;
#X connect 12 0 18 0;
#X connect 13 0 18 0;
#X connect 14 0 18 0;
#X connect 15 0 18 0;
#X connect 16 0 18 0;
#X connect 17 0 18 0;
#X connect 18 0 19 0;
#X connect 20 0 22 1;
#X connect 21 0 22 0;
#X connect 21 1 20 0;
#X connect 22 0 25 0;
#X connect 25 0 26 0;
#X connect 26 0 23 0;
